<?xml version="1.0" standalone="no"?>
<svg xmlns:xlink="http://www.w3.org/1999/xlink" id="wave" style="transform:rotate(180deg); transition: 0.3s" viewBox="0 0 1440 410" version="1.1" xmlns="http://www.w3.org/2000/svg"><defs><linearGradient id="sw-gradient-0" x1="0" x2="0" y1="1" y2="0"><stop stop-color="rgba(143, 0, 255, 1)" offset="0%"/><stop stop-color="rgba(183, 92, 255, 1)" offset="100%"/></linearGradient></defs><path style="transform:translate(0, 0px); opacity:1" fill="url(#sw-gradient-0)" d="M0,246L48,205C96,164,192,82,288,75.2C384,68,480,137,576,184.5C672,232,768,260,864,266.5C960,273,1056,260,1152,225.5C1248,191,1344,137,1440,136.7C1536,137,1632,191,1728,225.5C1824,260,1920,273,2016,252.8C2112,232,2208,178,2304,150.3C2400,123,2496,123,2592,136.7C2688,150,2784,178,2880,191.3C2976,205,3072,205,3168,205C3264,205,3360,205,3456,225.5C3552,246,3648,287,3744,307.5C3840,328,3936,328,4032,273.3C4128,219,4224,109,4320,61.5C4416,14,4512,27,4608,34.2C4704,41,4800,41,4896,54.7C4992,68,5088,96,5184,95.7C5280,96,5376,68,5472,68.3C5568,68,5664,96,5760,116.2C5856,137,5952,150,6048,136.7C6144,123,6240,82,6336,109.3C6432,137,6528,232,6624,287C6720,342,6816,355,6864,362.2L6912,369L6912,410L6864,410C6816,410,6720,410,6624,410C6528,410,6432,410,6336,410C6240,410,6144,410,6048,410C5952,410,5856,410,5760,410C5664,410,5568,410,5472,410C5376,410,5280,410,5184,410C5088,410,4992,410,4896,410C4800,410,4704,410,4608,410C4512,410,4416,410,4320,410C4224,410,4128,410,4032,410C3936,410,3840,410,3744,410C3648,410,3552,410,3456,410C3360,410,3264,410,3168,410C3072,410,2976,410,2880,410C2784,410,2688,410,2592,410C2496,410,2400,410,2304,410C2208,410,2112,410,2016,410C1920,410,1824,410,1728,410C1632,410,1536,410,1440,410C1344,410,1248,410,1152,410C1056,410,960,410,864,410C768,410,672,410,576,410C480,410,384,410,288,410C192,410,96,410,48,410L0,410Z"/><defs><linearGradient id="sw-gradient-1" x1="0" x2="0" y1="1" y2="0"><stop stop-color="rgba(183, 92, 255, 1)" offset="0%"/><stop stop-color="rgba(214, 163, 255, 1)" offset="100%"/></linearGradient></defs><path style="transform:translate(0, 50px); opacity:0.9" fill="url(#sw-gradient-1)" d="M0,287L48,287C96,287,192,287,288,246C384,205,480,123,576,95.7C672,68,768,96,864,143.5C960,191,1056,260,1152,266.5C1248,273,1344,219,1440,218.7C1536,219,1632,273,1728,300.7C1824,328,1920,328,2016,328C2112,328,2208,328,2304,287C2400,246,2496,164,2592,109.3C2688,55,2784,27,2880,20.5C2976,14,3072,27,3168,75.2C3264,123,3360,205,3456,198.2C3552,191,3648,96,3744,75.2C3840,55,3936,109,4032,136.7C4128,164,4224,164,4320,184.5C4416,205,4512,246,4608,252.8C4704,260,4800,232,4896,218.7C4992,205,5088,205,5184,170.8C5280,137,5376,68,5472,68.3C5568,68,5664,137,5760,191.3C5856,246,5952,287,6048,266.5C6144,246,6240,164,6336,143.5C6432,123,6528,164,6624,205C6720,246,6816,287,6864,307.5L6912,328L6912,410L6864,410C6816,410,6720,410,6624,410C6528,410,6432,410,6336,410C6240,410,6144,410,6048,410C5952,410,5856,410,5760,410C5664,410,5568,410,5472,410C5376,410,5280,410,5184,410C5088,410,4992,410,4896,410C4800,410,4704,410,4608,410C4512,410,4416,410,4320,410C4224,410,4128,410,4032,410C3936,410,3840,410,3744,410C3648,410,3552,410,3456,410C3360,410,3264,410,3168,410C3072,410,2976,410,2880,410C2784,410,2688,410,2592,410C2496,410,2400,410,2304,410C2208,410,2112,410,2016,410C1920,410,1824,410,1728,410C1632,410,1536,410,1440,410C1344,410,1248,410,1152,410C1056,410,960,410,864,410C768,410,672,410,576,410C480,410,384,410,288,410C192,410,96,410,48,410L0,410Z"/></svg>